<?xml version="1.0" encoding="utf-8"?>
<!-- Generator: Adobe Illustrator 17.0.0, SVG Export Plug-In . SVG Version: 6.00 Build 0)  -->
<!DOCTYPE svg PUBLIC "-//W3C//DTD SVG 1.1//EN" "http://www.w3.org/Graphics/SVG/1.1/DTD/svg11.dtd">
<svg version="1.1" id="Layer_1" xmlns="http://www.w3.org/2000/svg" xmlns:xlink="http://www.w3.org/1999/xlink" x="0px" y="0px"
	 width="300px" height="134px" viewBox="0 0 300 134" enable-background="new 0 0 300 134" xml:space="preserve">
<g>
	<path fill="#FFFFFF" d="M36.705,31.26c-3.642,0-6.865,0.56-9.666,1.961c-2.662,1.261-5.044,3.363-7.005,6.585h-0.281V2.261H0
		v101.149h19.753V54.656c0-6.304,1.121-11.208,7.425-11.208c6.304,0,7.425,4.903,7.425,11.208v48.753h19.753V46.671
		C54.357,36.864,46.092,31.26,36.705,31.26z"/>
	<path fill="#FFFFFF" d="M97.878,81.49c0,6.304-1.121,11.208-7.425,11.208c-6.304,0-7.425-4.904-7.425-11.208V32.737H63.275v56.739
		c0,9.807,8.266,15.411,17.652,15.411c3.643,0,6.865-0.56,9.667-1.961c2.662-1.262,5.044-3.363,7.005-6.585h0.28v37.546h19.753
		V32.737H97.878V81.49z"/>
	<path fill="#FFFFFF" d="M133.372,32.661h-8.966V44.85h8.826v58.56h19.753V44.85h9.246V32.661h-9.246v-8.546
		c0-7.145,1.681-10.227,9.667-9.666V1.84c-2.382-0.14-4.623-0.28-7.005-0.28C131.551,1.56,133.232,12.348,133.372,32.661z"/>
	<path fill="#FFFFFF" d="M207.904,31.26c-3.642,0-6.865,0.56-9.666,1.961c-2.662,1.261-5.044,3.363-7.005,6.585h-0.28v-7.145
		h-19.753v70.748h19.753V54.656c0-6.304,1.121-11.208,7.425-11.208c6.304,0,7.425,4.903,7.425,11.208v48.753h19.753V46.671
		C225.556,36.864,217.29,31.26,207.904,31.26z"/>
	<path fill="#FFFFFF" d="M286.479,50.085c5.741-5.258,9.341-12.814,9.341-21.212c0-15.883-12.875-28.758-28.758-28.758
		s-28.758,12.875-28.758,28.758c0,8.398,3.601,15.955,9.341,21.212c-8.196,5.992-13.521,15.676-13.521,26.606
		c0,18.191,14.747,32.938,32.938,32.938c18.191,0,32.938-14.747,32.938-32.938C300,65.761,294.675,56.076,286.479,50.085z
		 M267.062,15.162c7.572,0,13.71,6.138,13.71,13.71c0,7.572-6.138,13.71-13.71,13.71c-7.572,0-13.71-6.138-13.71-13.71
		C253.352,21.3,259.49,15.162,267.062,15.162z M267.062,96.072c-10.704,0-19.381-8.677-19.381-19.381s8.677-19.381,19.381-19.381
		c10.704,0,19.381,8.677,19.381,19.381S277.766,96.072,267.062,96.072z"/>
	<path fill="#FFFFFF" d="M278.762,70.471c0,1.924-1.427,2.267-3.261,2.267h-14.184v0.012h-3.193c-3.658,0-6.308,2.423-6.308,5.388
		s1.883,5.174,7.142,5.174c0,0-3.421-0.342-3.421-2.266c0-1.924,1.497-2.266,3.421-2.266h14.881v-0.012h2.457
		c3.487,0,6.012-2.423,6.012-5.388c0-2.965-1.795-5.175-6.807-5.175C275.501,68.204,278.762,68.546,278.762,70.471z"/>
</g>
</svg>
